<svg version="1.2" xmlns="http://www.w3.org/2000/svg" viewBox="0 0 1080 560" width="1080" height="560">
	<title>logo</title>
	<defs>
		<linearGradient id="g1" x1="727.4" y1="408.2" x2="727.4" y2="320.3" gradientUnits="userSpaceOnUse">
			<stop offset="0" stop-color="#e7a627"/>
			<stop offset="1" stop-color="#1e1212"/>
		</linearGradient>
		<linearGradient id="g2" x1="909" y1="84.1" x2="909" y2="241.6" gradientUnits="userSpaceOnUse">
			<stop offset="0" stop-color="#ab6fb2"/>
			<stop offset="1" stop-color="#d8b567"/>
		</linearGradient>
		<linearGradient id="g3" x1="775.2" y1="335.4" x2="882.1" y2="116.3" gradientUnits="userSpaceOnUse">
			<stop offset="0" stop-color="#8ace84"/>
			<stop offset="1" stop-color="#47442f"/>
		</linearGradient>
	</defs>
	<style>
		tspan { white-space:pre } 
		.s0 { fill: none } 
		.t1 { font-size: 88px;fill: #bcbcad;font-weight: 400;font-family: "DelaGothicOne-Regular", "Dela Gothic One" } 
		.s2 { fill: url(#g1) } 
		.s3 { fill: url(#g2) } 
		.s4 { fill: url(#g3) } 
	</style>
	<path id="форма 7" class="s0" d="m-420-680h1920v1920h-1920z"/>
	<path id="форма 8" class="s0" d="m540 820c-298.6 0-540-241.4-540-540 0-298.6 241.4-540 540-540 298.6 0 540 241.4 540 540 0 298.6-241.4 540-540 540z"/>
	<text id="Russian Aerospace Systems" style="transform: matrix(1,0,0,1,102.234,199.113)" >
		<tspan x="0" y="0" class="t1">R</tspan><tspan  y="0" class="t1">u</tspan><tspan  y="0" class="t1">s</tspan><tspan  y="0" class="t1">s</tspan><tspan  y="0" class="t1">i</tspan><tspan  y="0" class="t1">a</tspan><tspan  y="0" class="t1">n</tspan><tspan  y="0" class="t1">
</tspan>
		<tspan x="0" y="105.6" class="t1">A</tspan><tspan  y="105.6" class="t1">e</tspan><tspan  y="105.6" class="t1">r</tspan><tspan  y="105.6" class="t1">o</tspan><tspan  y="105.6" class="t1">s</tspan><tspan  y="105.6" class="t1">p</tspan><tspan  y="105.6" class="t1">a</tspan><tspan  y="105.6" class="t1">c</tspan><tspan  y="105.6" class="t1">e</tspan><tspan  y="105.6" class="t1">
</tspan>
		<tspan x="0" y="211.2" class="t1">S</tspan><tspan  y="211.2" class="t1">y</tspan><tspan  y="211.2" class="t1">s</tspan><tspan  y="211.2" class="t1">t</tspan><tspan  y="211.2" class="t1">e</tspan><tspan  y="211.2" class="t1">m</tspan><tspan  y="211.2" class="t1">s
</tspan>
	</text>
	<path id="форма 6" class="s2" d="m689.9 427c-4.3-4.3 10-25.6 32.1-47.7 22.1-22.1 43.5-36.5 47.8-32.2 4.3 4.3-10.1 25.6-32.2 47.7-22.1 22.1-43.4 36.5-47.7 32.2z"/>
	<path id="форма 2" class="s3" d="m842.7 274.4c-9.8-9.8 13.9-49.3 53-88.4 39.1-39.1 78.6-62.8 88.4-53.1 9.8 9.8-13.9 49.3-53 88.4-39.1 39.1-78.6 62.8-88.4 53.1z"/>
	<path id="форма 1" class="s4" d="m900.8 181.2l35.4 35.4-167.6 167.5-35.3-35.3z"/>
</svg>